<svg width="335" height="350" viewBox="0 0 335 350" fill="none" xmlns="http://www.w3.org/2000/svg">
<mask id="mask0_1267_1838" style="mask-type:alpha" maskUnits="userSpaceOnUse" x="0" y="0" width="335" height="350">
<rect width="335" height="350" fill="#EEEFF4"/>
</mask>
<g mask="url(#mask0_1267_1838)">
<rect x="9.69642" y="341.616" width="721.61" height="539.362" transform="rotate(-54.9739 9.69642 341.616)" stroke="#3858E4"/>
<rect x="18.2722" y="316.501" width="695.826" height="521.863" transform="rotate(-52.2335 18.2722 316.501)" stroke="#3858E4"/>
<rect x="27.9221" y="290.961" width="670.043" height="504.363" transform="rotate(-49.2725 27.9221 290.961)" stroke="#3858E4"/>
<rect x="38.8818" y="265.471" width="644.26" height="486.864" transform="rotate(-46.1295 38.8818 265.471)" stroke="#3858E4"/>
<rect x="51.2988" y="240.5" width="618.476" height="469.364" transform="rotate(-42.8441 51.2988 240.5)" stroke="#3858E4"/>
<rect x="65.2298" y="216.5" width="592.693" height="451.865" transform="rotate(-39.4557 65.2298 216.5)" stroke="#3858E4"/>
<rect x="80.6425" y="193.892" width="566.909" height="434.365" transform="rotate(-36.004 80.6425 193.892)" stroke="#3858E4"/>
<rect x="97.4231" y="173.049" width="541.126" height="416.866" transform="rotate(-32.5284 97.4231 173.049)" stroke="#3858E4"/>
<rect x="115.389" y="154.288" width="515.342" height="399.367" transform="rotate(-29.0674 115.389 154.288)" stroke="#3858E4"/>
<rect x="134.302" y="137.859" width="489.559" height="381.867" transform="rotate(-25.6589 134.302 137.859)" stroke="#3858E4"/>
<rect x="153.889" y="123.936" width="463.776" height="364.368" transform="rotate(-22.3393 153.889 123.936)" stroke="#3858E4"/>
<rect x="173.858" y="112.62" width="437.992" height="346.868" transform="rotate(-19.1437 173.858 112.62)" stroke="#3858E4"/>
<rect x="193.92" y="103.936" width="412.209" height="329.369" transform="rotate(-16.1054 193.92 103.936)" stroke="#3858E4"/>
<rect x="213.799" y="97.8427" width="386.425" height="311.869" transform="rotate(-13.2558 213.799 97.8427)" stroke="#3858E4"/>
<rect x="233.255" y="94.2379" width="360.642" height="294.37" transform="rotate(-10.6237 233.255 94.2379)" stroke="#3858E4"/>
<rect x="252.086" y="92.9698" width="334.858" height="276.87" transform="rotate(-8.23595 252.086 92.9698)" stroke="#3858E4"/>
<rect x="270.144" y="93.8487" width="309.075" height="259.371" transform="rotate(-6.11641 270.144 93.8487)" stroke="#3858E4"/>
<rect x="287.331" y="96.6558" width="283.292" height="241.872" transform="rotate(-4.28622 287.331 96.6558)" stroke="#3858E4"/>
<rect x="303.606" y="101.156" width="257.508" height="224.372" transform="rotate(-2.76356 303.606 101.156)" stroke="#3858E4"/>
<rect x="318.978" y="107.104" width="231.725" height="206.873" transform="rotate(-1.56345 318.978 107.104)" stroke="#3858E4"/>
<rect x="333.503" y="114.252" width="205.941" height="189.373" transform="rotate(-0.697716 333.503 114.252)" stroke="#3858E4"/>
</g>
</svg>
