<svg width="893" height="245" viewBox="0 0 893 245" fill="none" xmlns="http://www.w3.org/2000/svg">
<mask id="mask0_1267_1428" style="mask-type:alpha" maskUnits="userSpaceOnUse" x="0" y="0" width="893" height="245">
<rect width="893" height="245" fill="#F4F5F8"/>
</mask>
<g mask="url(#mask0_1267_1428)">
<path d="M652.973 -194.667L375.007 -66.3458L374.926 -66.3083L374.901 -66.2221L291.376 228.32L163.055 -49.6462L163.017 -49.7276L162.931 -49.752L-131.611 -133.278L146.355 -261.599L146.436 -261.636L146.461 -261.723L229.986 -556.264L358.308 -278.298L358.345 -278.217L358.431 -278.193L652.973 -194.667Z" stroke="#3858E4" stroke-width="0.389765"/>
<path d="M641.496 -247.027L384.275 -88.3765L384.199 -88.3294L384.185 -88.2409L337.187 210.294L178.537 -46.9258L178.49 -47.0021L178.402 -47.016L-120.134 -94.0139L137.086 -252.664L137.163 -252.711L137.177 -252.8L184.174 -551.335L342.825 -294.115L342.872 -294.039L342.96 -294.025L641.496 -247.027Z" stroke="#3858E4" stroke-width="0.389765"/>
<path d="M624.373 -298.273L391.717 -111.631L391.647 -111.575L391.644 -111.485L381.886 186.624L195.243 -46.0324L195.187 -46.1023L195.098 -46.1052L-103.011 -55.8638L129.645 -242.506L129.715 -242.562L129.718 -242.652L139.477 -540.761L326.119 -308.104L326.175 -308.035L326.264 -308.032L624.373 -298.273Z" stroke="#3858E4" stroke-width="0.389765"/>
<path d="M601.718 -347.314L397.068 -135.783L397.005 -135.719L397.014 -135.629L424.378 157.421L212.848 -47.2299L212.783 -47.2922L212.694 -47.2838L-80.3563 -19.9189L124.294 -231.45L124.357 -231.514L124.348 -231.603L96.9836 -524.654L308.514 -320.003L308.579 -319.941L308.668 -319.949L601.718 -347.314Z" stroke="#3858E4" stroke-width="0.389765"/>
<path d="M573.901 -393.115L400.147 -160.454L400.094 -160.382L400.113 -160.294L463.632 123.055L230.97 -50.698L230.898 -50.7516L230.811 -50.732L-52.5386 12.7861L121.215 -219.875L121.268 -219.947L121.249 -220.034L57.7304 -503.384L290.392 -329.631L290.464 -329.577L290.551 -329.597L573.901 -393.115Z" stroke="#3858E4" stroke-width="0.389765"/>
<path d="M541.524 -434.759L400.872 -185.232L400.828 -185.154L400.859 -185.07L498.728 84.1301L249.2 -56.5213L249.122 -56.5653L249.038 -56.5347L-20.1616 41.3343L120.49 -208.193L120.534 -208.271L120.503 -208.355L22.6341 -477.555L272.162 -336.904L272.24 -336.86L272.324 -336.89L541.524 -434.759Z" stroke="#3858E4" stroke-width="0.389765"/>
<path d="M505.387 -471.501L399.257 -209.7L399.223 -209.617L399.264 -209.537L528.921 41.4455L267.12 -64.6848L267.037 -64.7185L266.958 -64.6774L15.975 64.9795L122.105 -196.821L122.139 -196.904L122.098 -196.984L-7.55901 -447.967L254.242 -341.836L254.325 -341.803L254.404 -341.844L505.387 -471.501Z" stroke="#3858E4" stroke-width="0.389765"/>
<path d="M466.435 -502.802L395.411 -233.458L395.388 -233.371L395.439 -233.298L553.675 -4.0548L284.33 -75.0787L284.244 -75.1015L284.17 -75.0506L54.9272 83.185L125.951 -186.159L125.974 -186.246L125.923 -186.32L-32.3127 -415.562L237.032 -344.539L237.118 -344.516L237.192 -344.567L466.435 -502.802Z" stroke="#3858E4" stroke-width="0.389765"/>
<path d="M425.696 -528.362L389.532 -256.146L389.52 -256.057L389.58 -255.991L572.686 -51.3414L300.471 -87.5059L300.382 -87.5177L300.315 -87.458L95.6658 95.6488L131.83 -176.567L131.842 -176.656L131.782 -176.723L-51.3244 -381.372L220.891 -345.207L220.98 -345.195L221.047 -345.255L425.696 -528.362Z" stroke="#3858E4" stroke-width="0.389765"/>
<path d="M384.223 -548.118L381.886 -277.464L381.886 -277.374L381.953 -277.315L585.894 -99.3626L315.24 -101.699L315.151 -101.7L315.092 -101.633L137.139 102.308L139.476 -168.346L139.476 -168.435L139.409 -168.494L-64.5322 -346.447L206.122 -344.11L206.212 -344.109L206.27 -344.177L384.223 -548.118Z" stroke="#3858E4" stroke-width="0.389765"/>
<path d="M343.031 -562.236L372.795 -297.182L372.805 -297.093L372.879 -297.042L593.465 -147.103L328.41 -117.339L328.321 -117.329L328.27 -117.255L178.331 103.331L148.567 -161.724L148.557 -161.813L148.483 -161.863L-72.1026 -311.803L192.952 -341.567L193.041 -341.577L193.092 -341.651L343.031 -562.236Z" stroke="#3858E4" stroke-width="0.389765"/>
<path d="M303.048 -571.087L362.608 -315.149L362.628 -315.062L362.707 -315.02L595.768 -193.633L339.829 -134.074L339.742 -134.054L339.7 -133.974L218.314 99.0858L158.754 -156.853L158.734 -156.94L158.655 -156.981L-74.4057 -278.368L181.533 -337.927L181.62 -337.948L181.662 -338.027L303.048 -571.087Z" stroke="#3858E4" stroke-width="0.389765"/>
<path d="M265.074 -575.207L351.686 -331.295L351.716 -331.21L351.799 -331.178L593.339 -238.156L349.427 -151.544L349.342 -151.514L349.31 -151.431L256.288 90.1096L169.676 -153.803L169.646 -153.888L169.563 -153.92L-71.9775 -246.942L171.935 -333.554L172.02 -333.583L172.052 -333.667L265.074 -575.207Z" stroke="#3858E4" stroke-width="0.389765"/>
<path d="M229.754 -575.254L340.381 -345.623L340.42 -345.542L340.507 -345.519L586.838 -280.024L357.207 -169.397L357.126 -169.358L357.103 -169.271L291.608 77.0607L180.981 -152.571L180.942 -152.652L180.855 -152.675L-65.4765 -218.17L164.155 -328.797L164.236 -328.836L164.259 -328.922L229.754 -575.254Z" stroke="#3858E4" stroke-width="0.389765"/>
<path d="M197.564 -571.963L329.021 -358.203L329.068 -358.127L329.157 -358.113L576.999 -318.762L363.239 -187.304L363.163 -187.258L363.149 -187.169L323.798 60.6732L192.341 -153.087L192.294 -153.163L192.205 -153.177L-55.6371 -192.528L158.123 -323.985L158.199 -324.032L158.213 -324.121L197.564 -571.963Z" stroke="#3858E4" stroke-width="0.389765"/>
<path d="M168.815 -566.098L317.897 -369.159L317.951 -369.087L318.04 -369.082L564.586 -354.059L367.647 -204.977L367.575 -204.923L367.57 -204.834L352.547 41.7122L203.465 -155.227L203.411 -155.299L203.322 -155.304L-43.2242 -170.327L153.715 -319.409L153.787 -319.463L153.792 -319.552L168.815 -566.098Z" stroke="#3858E4" stroke-width="0.389765"/>
<path d="M143.658 -558.416L307.252 -378.653L307.313 -378.587L307.402 -378.589L550.356 -385.764L370.593 -222.17L370.527 -222.109L370.529 -222.02L377.704 20.9339L214.11 -158.829L214.049 -158.896L213.96 -158.893L-28.9939 -151.718L150.769 -315.312L150.836 -315.373L150.833 -315.462L143.658 -558.416Z" stroke="#3858E4" stroke-width="0.389765"/>
<path d="M122.107 -549.63L297.285 -386.875L297.35 -386.814L297.439 -386.824L535.022 -413.863L372.267 -238.685L372.206 -238.62L372.216 -238.531L399.255 -0.948143L224.077 -163.704L224.012 -163.765L223.923 -163.754L-13.66 -136.715L149.095 -311.893L149.156 -311.959L149.146 -312.048L122.107 -549.63Z" stroke="#3858E4" stroke-width="0.389765"/>
<path d="M104.064 -540.387L288.142 -394.026L288.212 -393.97L288.3 -393.987L519.231 -438.454L372.869 -254.376L372.814 -254.306L372.831 -254.218L417.298 -23.2876L233.22 -169.649L233.15 -169.705L233.062 -169.688L2.13134 -125.221L148.493 -309.298L148.548 -309.368L148.531 -309.456L104.064 -540.387Z" stroke="#3858E4" stroke-width="0.389765"/>
<path d="M89.3436 -531.249L279.926 -400.308L279.999 -400.257L280.086 -400.28L503.544 -459.723L372.603 -269.141L372.553 -269.067L372.576 -268.98L432.018 -45.522L241.436 -176.463L241.362 -176.514L241.276 -176.49L17.8176 -117.048L148.758 -307.63L148.809 -307.704L148.786 -307.79L89.3436 -531.249Z" stroke="#3858E4" stroke-width="0.389765"/>
<path d="M77.6998 -522.685L272.696 -405.914L272.773 -405.868L272.858 -405.897L488.432 -477.914L371.662 -282.918L371.616 -282.841L371.644 -282.756L443.662 -67.182L248.666 -183.952L248.589 -183.998L248.504 -183.97L32.9297 -111.952L149.7 -306.948L149.746 -307.025L149.718 -307.11L77.6998 -522.685Z" stroke="#3858E4" stroke-width="0.389765"/>
<path d="M68.8527 -515.069L266.479 -411.022L266.558 -410.98L266.641 -411.013L474.269 -493.31L370.222 -295.684L370.18 -295.604L370.213 -295.521L452.509 -87.8937L254.883 -191.94L254.804 -191.982L254.721 -191.949L47.0934 -109.653L151.14 -307.279L151.182 -307.358L151.149 -307.442L68.8527 -515.069Z" stroke="#3858E4" stroke-width="0.389765"/>
<path d="M62.5086 -508.683L261.27 -415.786L261.351 -415.749L261.433 -415.785L461.335 -506.202L368.438 -307.44L368.4 -307.359L368.437 -307.277L458.853 -107.376L260.092 -200.272L260.011 -200.31L259.929 -200.273L60.0273 -109.857L152.924 -308.618L152.962 -308.7L152.925 -308.781L62.5086 -508.683Z" stroke="#3858E4" stroke-width="0.389765"/>
<path d="M58.3788 -503.722L257.045 -420.338L257.127 -420.304L257.207 -420.344L449.826 -516.88L366.442 -318.214L366.407 -318.131L366.447 -318.051L462.983 -125.433L264.317 -208.817L264.235 -208.851L264.155 -208.811L71.5362 -112.275L154.92 -310.941L154.955 -311.024L154.915 -311.104L58.3788 -503.722Z" stroke="#3858E4" stroke-width="0.389765"/>
<path d="M56.1915 -500.304L253.761 -424.783L253.845 -424.751L253.924 -424.793L439.86 -525.615L364.338 -328.045L364.306 -327.962L364.349 -327.883L465.17 -141.947L267.601 -217.468L267.517 -217.5L267.438 -217.457L81.5022 -116.636L157.024 -314.206L157.056 -314.289L157.013 -314.368L56.1915 -500.304Z" stroke="#3858E4" stroke-width="0.389765"/>
<path d="M55.701 -498.479L251.366 -429.2L251.451 -429.17L251.529 -429.214L431.487 -532.653L362.207 -336.988L362.177 -336.904L362.222 -336.826L465.661 -156.868L269.996 -226.147L269.911 -226.177L269.833 -226.133L89.8752 -122.693L159.155 -318.359L159.185 -318.443L159.14 -318.521L55.701 -498.479Z" stroke="#3858E4" stroke-width="0.389765"/>
<path d="M56.6929 -498.24L249.801 -433.645L249.886 -433.617L249.962 -433.663L424.699 -538.21L360.105 -345.102L360.076 -345.017L360.122 -344.94L464.669 -170.203L271.561 -234.798L271.476 -234.827L271.4 -234.78L96.6625 -130.234L161.257 -323.341L161.286 -323.426L161.24 -323.503L56.6929 -498.24Z" stroke="#3858E4" stroke-width="0.389765"/>
<path d="M58.9852 -499.531L248.999 -438.153L249.085 -438.126L249.161 -438.173L419.442 -542.465L358.065 -352.451L358.037 -352.366L358.084 -352.289L462.377 -182.008L272.362 -243.386L272.277 -243.413L272.201 -243.367L101.92 -139.074L163.297 -329.088L163.325 -329.173L163.278 -329.25L58.9852 -499.531Z" stroke="#3858E4" stroke-width="0.389765"/>
<path d="M62.4275 -502.257L248.897 -442.739L248.982 -442.712L249.059 -442.759L415.621 -545.571L356.103 -359.102L356.075 -359.016L356.122 -358.94L458.935 -192.378L272.465 -251.896L272.38 -251.923L272.303 -251.876L105.741 -149.064L165.26 -335.534L165.287 -335.619L165.24 -335.695L62.4275 -502.257Z" stroke="#3858E4" stroke-width="0.389765"/>
</g>
</svg>
