<svg width="893" height="245" viewBox="0 0 893 245" fill="none" xmlns="http://www.w3.org/2000/svg">
<mask id="mask0_1267_1620" style="mask-type:alpha" maskUnits="userSpaceOnUse" x="0" y="0" width="893" height="245">
<rect width="893" height="245" fill="#F4F5F8"/>
</mask>
<g mask="url(#mask0_1267_1620)">
<path d="M1136.97 122.333L859.007 250.654L858.926 250.692L858.901 250.778L775.376 545.32L647.055 267.354L647.017 267.272L646.931 267.248L352.389 183.722L630.355 55.4012L630.436 55.3637L630.461 55.2775L713.986 -239.264L842.308 38.7016L842.345 38.783L842.431 38.8074L1136.97 122.333Z" stroke="#3858E4" stroke-width="0.389765"/>
<path d="M1125.5 69.9732L868.275 228.624L868.199 228.671L868.185 228.759L821.187 527.294L662.537 270.074L662.49 269.998L662.402 269.984L363.866 222.986L621.086 64.3359L621.163 64.2888L621.177 64.2003L668.174 -234.335L826.825 22.8852L826.872 22.9615L826.96 22.9754L1125.5 69.9732Z" stroke="#3858E4" stroke-width="0.389765"/>
<path d="M1108.37 18.7271L875.717 205.369L875.647 205.425L875.644 205.515L865.886 503.624L679.243 270.968L679.187 270.898L679.098 270.895L380.989 261.136L613.645 74.494L613.715 74.4379L613.718 74.3484L623.477 -223.761L810.119 8.89558L810.175 8.96548L810.264 8.96841L1108.37 18.7271Z" stroke="#3858E4" stroke-width="0.389765"/>
<path d="M1085.72 -30.3138L881.068 181.217L881.005 181.281L881.014 181.371L908.378 474.421L696.848 269.77L696.783 269.708L696.694 269.716L403.644 297.081L608.294 85.5501L608.357 85.4857L608.348 85.3965L580.984 -207.654L792.514 -3.00291L792.579 -2.9406L792.668 -2.94894L1085.72 -30.3138Z" stroke="#3858E4" stroke-width="0.389765"/>
<path d="M1057.9 -76.1149L884.147 156.546L884.094 156.618L884.113 156.706L947.632 440.055L714.97 266.302L714.898 266.248L714.811 266.268L431.461 329.786L605.215 97.1247L605.268 97.0529L605.249 96.9655L541.73 -186.384L774.392 -12.6308L774.464 -12.5772L774.551 -12.5968L1057.9 -76.1149Z" stroke="#3858E4" stroke-width="0.389765"/>
<path d="M1025.52 -117.759L884.872 131.768L884.828 131.846L884.859 131.93L982.728 401.13L733.2 260.479L733.122 260.435L733.038 260.465L463.838 358.334L604.49 108.807L604.534 108.729L604.503 108.645L506.634 -160.555L756.162 -19.9038L756.24 -19.8598L756.324 -19.8904L1025.52 -117.759Z" stroke="#3858E4" stroke-width="0.389765"/>
<path d="M989.387 -154.501L883.257 107.3L883.223 107.383L883.264 107.463L1012.92 358.445L751.12 252.315L751.037 252.282L750.958 252.323L499.975 381.98L606.105 120.179L606.139 120.096L606.098 120.016L476.441 -130.967L738.242 -24.8362L738.325 -24.8025L738.404 -24.8436L989.387 -154.501Z" stroke="#3858E4" stroke-width="0.389765"/>
<path d="M950.435 -185.802L879.411 83.5421L879.388 83.6287L879.439 83.7025L1037.67 312.945L768.33 241.921L768.244 241.898L768.17 241.949L538.927 400.185L609.951 130.841L609.974 130.754L609.923 130.68L451.687 -98.5624L721.032 -27.5385L721.118 -27.5157L721.192 -27.5666L950.435 -185.802Z" stroke="#3858E4" stroke-width="0.389765"/>
<path d="M909.696 -211.362L873.532 60.8538L873.52 60.9427L873.58 61.0095L1056.69 265.659L784.47 229.494L784.382 229.482L784.315 229.542L579.666 412.649L615.83 140.433L615.842 140.344L615.782 140.277L432.675 -64.3718L704.891 -28.2073L704.98 -28.1955L705.047 -28.2552L909.696 -211.362Z" stroke="#3858E4" stroke-width="0.389765"/>
<path d="M868.223 -231.118L865.886 39.5361L865.886 39.6258L865.953 39.6847L1069.89 217.637L799.24 215.301L799.15 215.3L799.091 215.367L621.139 419.308L623.475 148.654L623.476 148.565L623.409 148.506L419.468 -29.4469L690.122 -27.1102L690.211 -27.1094L690.27 -27.177L868.223 -231.118Z" stroke="#3858E4" stroke-width="0.389765"/>
<path d="M827.031 -245.236L856.795 19.8184L856.805 19.9075L856.879 19.9578L1077.46 169.897L812.41 199.661L812.321 199.671L812.27 199.745L662.331 420.331L632.567 155.276L632.557 155.187L632.483 155.137L411.897 5.19689L676.952 -24.5667L677.041 -24.5767L677.092 -24.6508L827.031 -245.236Z" stroke="#3858E4" stroke-width="0.389765"/>
<path d="M787.048 -254.087L846.608 1.85111L846.628 1.9384L846.707 1.97979L1079.77 123.367L823.829 182.926L823.742 182.946L823.7 183.026L702.314 416.086L642.754 160.147L642.734 160.06L642.655 160.019L409.594 38.6317L665.533 -20.9274L665.62 -20.9477L665.662 -21.0272L787.048 -254.087Z" stroke="#3858E4" stroke-width="0.389765"/>
<path d="M749.074 -258.207L835.686 -14.2947L835.716 -14.2103L835.799 -14.1781L1077.34 78.8445L833.427 165.456L833.342 165.486L833.31 165.569L740.288 407.11L653.676 163.197L653.646 163.112L653.563 163.08L412.023 70.0577L655.935 -16.5535L656.02 -16.5835L656.052 -16.6671L749.074 -258.207Z" stroke="#3858E4" stroke-width="0.389765"/>
<path d="M713.754 -258.254L824.381 -28.6228L824.42 -28.5421L824.507 -28.5191L1070.84 36.9761L841.207 147.603L841.126 147.642L841.103 147.729L775.608 394.061L664.981 164.429L664.942 164.348L664.855 164.325L418.523 98.8302L648.155 -11.797L648.236 -11.8359L648.259 -11.9225L713.754 -258.254Z" stroke="#3858E4" stroke-width="0.389765"/>
<path d="M681.564 -254.963L813.021 -41.203L813.068 -41.1267L813.157 -41.1126L1061 -1.76153L847.239 129.696L847.163 129.742L847.149 129.831L807.798 377.673L676.341 163.913L676.294 163.837L676.205 163.823L428.363 124.472L642.123 -6.98529L642.199 -7.03223L642.213 -7.12074L681.564 -254.963Z" stroke="#3858E4" stroke-width="0.389765"/>
<path d="M652.815 -249.098L801.897 -52.1587L801.951 -52.0872L802.04 -52.0818L1048.59 -37.0592L851.647 112.023L851.575 112.077L851.57 112.166L836.547 358.712L687.465 161.773L687.411 161.701L687.322 161.696L440.776 146.673L637.715 -2.4087L637.787 -2.46279L637.792 -2.55223L652.815 -249.098Z" stroke="#3858E4" stroke-width="0.389765"/>
<path d="M627.658 -241.416L791.252 -61.6528L791.313 -61.5865L791.402 -61.5892L1034.36 -68.7645L854.593 94.8302L854.527 94.8906L854.529 94.9801L861.704 337.934L698.11 158.171L698.049 158.104L697.96 158.107L455.006 165.282L634.769 1.68771L634.836 1.62739L634.833 1.53782L627.658 -241.416Z" stroke="#3858E4" stroke-width="0.389765"/>
<path d="M606.107 -232.63L781.285 -69.8747L781.35 -69.8137L781.439 -69.8238L1019.02 -96.8631L856.267 78.3146L856.206 78.3803L856.216 78.4693L883.255 316.052L708.077 153.296L708.012 153.235L707.923 153.246L470.34 180.285L633.095 5.10705L633.156 5.0414L633.146 4.95236L606.107 -232.63Z" stroke="#3858E4" stroke-width="0.389765"/>
<path d="M588.064 -223.387L772.142 -77.0256L772.212 -76.9698L772.3 -76.9868L1003.23 -121.454L856.869 62.6238L856.814 62.6939L856.831 62.7819L901.298 293.712L717.22 147.351L717.15 147.295L717.062 147.312L486.131 191.779L632.493 7.70176L632.548 7.63161L632.531 7.54362L588.064 -223.387Z" stroke="#3858E4" stroke-width="0.389765"/>
<path d="M573.344 -214.249L763.926 -83.3078L763.999 -83.257L764.086 -83.28L987.544 -142.723L856.603 47.8594L856.553 47.9332L856.576 48.0198L916.018 271.478L725.436 140.537L725.362 140.486L725.276 140.51L501.818 199.952L632.758 9.37009L632.809 9.29623L632.786 9.20963L573.344 -214.249Z" stroke="#3858E4" stroke-width="0.389765"/>
<path d="M561.7 -205.685L756.696 -88.9143L756.773 -88.8683L756.858 -88.8967L972.432 -160.914L855.662 34.0818L855.616 34.1587L855.644 34.2437L927.662 249.818L732.666 133.048L732.589 133.002L732.504 133.03L516.93 205.048L633.7 10.0516L633.746 9.97474L633.718 9.88974L561.7 -205.685Z" stroke="#3858E4" stroke-width="0.389765"/>
<path d="M552.853 -198.069L750.479 -94.0222L750.558 -93.9804L750.641 -94.0134L958.269 -176.31L854.222 21.3164L854.18 21.3957L854.213 21.479L936.509 229.106L738.883 125.06L738.804 125.018L738.721 125.051L531.093 207.347L635.14 9.72103L635.182 9.64173L635.149 9.55842L552.853 -198.069Z" stroke="#3858E4" stroke-width="0.389765"/>
<path d="M546.509 -191.683L745.27 -98.7865L745.351 -98.7486L745.433 -98.7855L945.335 -189.202L852.438 9.55969L852.4 9.64087L852.437 9.72252L942.853 209.624L744.092 116.728L744.011 116.69L743.929 116.727L544.027 207.143L636.924 8.38167L636.962 8.30049L636.925 8.21884L546.509 -191.683Z" stroke="#3858E4" stroke-width="0.389765"/>
<path d="M542.379 -186.722L741.045 -103.338L741.127 -103.304L741.207 -103.344L933.826 -199.88L850.442 -1.21372L850.407 -1.13109L850.447 -1.05098L946.983 191.567L748.317 108.183L748.235 108.149L748.155 108.189L555.536 204.725L638.92 6.05888L638.955 5.97625L638.915 5.89613L542.379 -186.722Z" stroke="#3858E4" stroke-width="0.389765"/>
<path d="M540.191 -183.304L737.761 -107.783L737.845 -107.751L737.924 -107.793L923.86 -208.615L848.338 -11.0454L848.306 -10.9617L848.349 -10.8829L949.17 175.053L751.601 99.5318L751.517 99.4998L751.438 99.5425L565.502 200.364L641.024 2.7944L641.056 2.7107L641.013 2.63192L540.191 -183.304Z" stroke="#3858E4" stroke-width="0.389765"/>
<path d="M539.701 -181.479L735.366 -112.2L735.451 -112.17L735.529 -112.214L915.487 -215.653L846.207 -19.9881L846.177 -19.9036L846.222 -19.8259L949.661 160.132L753.996 90.8527L753.911 90.8228L753.833 90.8675L573.875 194.307L643.155 -1.35888L643.185 -1.44335L643.14 -1.52104L539.701 -181.479Z" stroke="#3858E4" stroke-width="0.389765"/>
<path d="M540.693 -181.24L733.801 -116.645L733.886 -116.617L733.962 -116.663L908.699 -221.21L844.105 -28.102L844.076 -28.017L844.122 -27.9401L948.669 146.797L755.561 82.202L755.476 82.1736L755.4 82.2196L580.663 186.767L645.257 -6.34119L645.286 -6.42617L645.24 -6.50307L540.693 -181.24Z" stroke="#3858E4" stroke-width="0.389765"/>
<path d="M542.985 -182.531L732.999 -121.153L733.085 -121.126L733.161 -121.173L903.442 -225.465L842.065 -35.4511L842.037 -35.3658L842.084 -35.2894L946.377 134.992L756.362 73.614L756.277 73.5865L756.201 73.6333L585.92 177.926L647.297 -12.0882L647.325 -12.1734L647.278 -12.2499L542.985 -182.531Z" stroke="#3858E4" stroke-width="0.389765"/>
<path d="M546.428 -185.257L732.897 -125.739L732.982 -125.712L733.059 -125.759L899.621 -228.571L840.103 -42.1017L840.075 -42.0163L840.122 -41.94L942.935 124.622L756.465 65.1039L756.38 65.0766L756.303 65.1237L589.741 167.936L649.26 -18.5337L649.287 -18.619L649.24 -18.6953L546.428 -185.257Z" stroke="#3858E4" stroke-width="0.389765"/>
<path d="M550.897 -189.294L733.426 -130.402L733.511 -130.375L733.588 -130.421L897.109 -230.65L838.217 -48.121L838.19 -48.0357L838.237 -47.9593L938.465 115.562L755.936 56.6704L755.851 56.6429L755.774 56.6897L592.253 156.918L651.145 -25.6107L651.172 -25.696L651.125 -25.7724L550.897 -189.294Z" stroke="#3858E4" stroke-width="0.389765"/>
<path d="M556.294 -194.49L734.519 -135.128L734.604 -135.1L734.681 -135.146L895.757 -231.801L836.395 -53.5759L836.367 -53.4909L836.413 -53.4141L933.068 107.663L754.843 48.3006L754.758 48.2723L754.681 48.3184L593.604 144.973L652.967 -33.2514L652.995 -33.3364L652.949 -33.4133L556.294 -194.49Z" stroke="#3858E4" stroke-width="0.389765"/>
<path d="M562.536 -200.679L736.108 -139.894L736.193 -139.865L736.27 -139.91L895.398 -232.107L834.613 -58.5347L834.584 -58.4502L834.629 -58.3726L926.826 100.755L753.254 39.9706L753.169 39.941L753.092 39.9859L593.964 132.183L654.748 -41.389L654.778 -41.4736L654.733 -41.5511L562.536 -200.679Z" stroke="#3858E4" stroke-width="0.389765"/>
<path d="M569.553 -207.68L738.126 -144.671L738.21 -144.64L738.289 -144.683L895.851 -231.638L832.842 -63.0647L832.811 -62.9808L832.854 -62.9023L919.809 94.6601L751.236 31.6515L751.152 31.6201L751.073 31.6634L593.511 118.618L656.52 -49.9553L656.551 -50.0392L656.508 -50.1177L569.553 -207.68Z" stroke="#3858E4" stroke-width="0.389765"/>
<path d="M577.279 -215.307L740.505 -149.426L740.588 -149.393L740.668 -149.434L896.93 -230.46L831.049 -67.2337L831.016 -67.1506L831.057 -67.071L912.083 89.1914L748.857 23.3106L748.774 23.2771L748.694 23.3183L592.432 104.344L658.312 -58.8821L658.346 -58.9652L658.305 -59.0447L577.279 -215.307Z" stroke="#3858E4" stroke-width="0.389765"/>
<path d="M585.647 -223.373L743.176 -154.127L743.258 -154.091L743.339 -154.129L898.448 -228.64L829.202 -71.1106L829.166 -71.0285L829.204 -70.9478L903.715 84.1608L746.186 14.9146L746.104 14.8785L746.023 14.9173L590.914 89.4277L660.16 -68.1014L660.196 -68.1834L660.158 -68.2642L585.647 -223.373Z" stroke="#3858E4" stroke-width="0.389765"/>
<path d="M594.589 -231.692L746.071 -158.741L746.152 -158.702L746.234 -158.738L900.219 -226.246L827.268 -74.7638L827.229 -74.683L827.265 -74.601L894.773 79.3844L743.291 6.43291L743.21 6.39402L743.128 6.43001L589.143 73.9383L662.094 -77.5442L662.133 -77.6249L662.097 -77.707L594.589 -231.692Z" stroke="#3858E4" stroke-width="0.389765"/>
<path d="M604.025 -240.09L749.121 -163.243L749.2 -163.201L749.284 -163.234L902.069 -223.358L825.222 -78.2621L825.18 -78.1829L825.213 -78.0996L885.337 74.6859L740.241 -2.16123L740.162 -2.20317L740.078 -2.17035L587.293 57.9539L664.14 -87.1421L664.182 -87.2213L664.149 -87.3047L604.025 -240.09Z" stroke="#3858E4" stroke-width="0.389765"/>
<path d="M613.868 -248.403L752.258 -167.613L752.335 -167.567L752.42 -167.597L903.834 -220.064L823.043 -81.6734L822.998 -81.596L823.028 -81.5113L875.494 69.9025L737.104 -10.8879L737.027 -10.9331L736.942 -10.9037L585.528 41.563L666.319 -96.8271L666.364 -96.9045L666.335 -96.9892L613.868 -248.403Z" stroke="#3858E4" stroke-width="0.389765"/>
<path d="M624.018 -256.485L755.416 -171.837L755.491 -171.788L755.577 -171.814L905.368 -216.461L820.719 -85.0636L820.671 -84.9882L820.696 -84.9024L865.344 64.8882L733.946 -19.7599L733.871 -19.8084L733.785 -19.7828L583.994 24.8645L668.643 -106.533L668.691 -106.608L668.666 -106.694L624.018 -256.485Z" stroke="#3858E4" stroke-width="0.389765"/>
<path d="M634.367 -264.21L758.531 -175.911L758.604 -175.859L758.691 -175.88L906.545 -212.66L818.246 -88.496L818.194 -88.4229L818.215 -88.336L854.995 59.5176L730.831 -28.7817L730.758 -28.8336L730.671 -28.812L582.817 7.96738L671.117 -116.196L671.168 -116.269L671.147 -116.356L634.367 -264.21Z" stroke="#3858E4" stroke-width="0.389765"/>
<path d="M644.798 -271.477L761.545 -179.839L761.616 -179.784L761.703 -179.801L907.263 -208.777L815.626 -92.0302L815.57 -91.9598L815.588 -91.8719L844.564 53.6881L727.817 -37.9496L727.746 -38.0049L727.659 -37.9874L582.099 -9.01159L673.736 -125.758L673.792 -125.829L673.774 -125.917L644.798 -271.477Z" stroke="#3858E4" stroke-width="0.389765"/>
<path d="M655.188 -278.208L764.404 -183.634L764.471 -183.575L764.56 -183.588L907.447 -204.935L812.872 -95.72L812.814 -95.6522L812.827 -95.5636L834.174 47.3231L724.959 -47.2511L724.891 -47.3098L724.802 -47.2965L581.916 -25.9495L676.49 -135.165L676.548 -135.233L676.535 -135.321L655.188 -278.208Z" stroke="#3858E4" stroke-width="0.389765"/>
<path d="M665.412 -284.352L767.059 -187.315L767.124 -187.253L767.213 -187.262L907.043 -201.259L810.005 -99.6126L809.943 -99.5478L809.952 -99.4586L823.95 40.3715L722.303 -56.6663L722.238 -56.7282L722.149 -56.7193L582.319 -42.7216L679.357 -144.368L679.419 -144.433L679.41 -144.522L665.412 -284.352Z" stroke="#3858E4" stroke-width="0.389765"/>
<path d="M675.348 -289.885L769.471 -190.908L769.533 -190.843L769.622 -190.847L906.027 -197.871L807.05 -103.748L806.985 -103.686L806.99 -103.597L814.014 32.8078L719.891 -66.1692L719.829 -66.2341L719.739 -66.2295L583.335 -59.2055L682.312 -153.329L682.377 -153.39L682.372 -153.48L675.348 -289.885Z" stroke="#3858E4" stroke-width="0.389765"/>
<path d="M684.879 -294.803L771.609 -194.444L771.667 -194.377L771.757 -194.377L904.398 -194.888L804.039 -108.159L803.971 -108.1L803.971 -108.011L804.483 24.6302L717.753 -75.7289L717.695 -75.7967L717.605 -75.7963L584.964 -75.2848L685.323 -162.014L685.391 -162.073L685.391 -162.162L684.879 -294.803Z" stroke="#3858E4" stroke-width="0.389765"/>
<path d="M693.899 -299.128L773.447 -197.958L773.503 -197.888L773.592 -197.884L902.175 -192.417L801.005 -112.868L800.934 -112.813L800.931 -112.723L795.463 15.8591L715.915 -85.3107L715.859 -85.3811L715.77 -85.3849L587.187 -90.8522L688.357 -170.401L688.428 -170.456L688.431 -170.546L693.899 -299.128Z" stroke="#3858E4" stroke-width="0.389765"/>
<path d="M702.312 -302.897L774.972 -201.486L775.025 -201.413L775.114 -201.405L899.396 -190.551L797.984 -117.891L797.911 -117.839L797.904 -117.75L787.05 6.53234L714.39 -94.8793L714.337 -94.9521L714.248 -94.9599L589.966 -105.814L691.378 -178.474L691.451 -178.526L691.458 -178.616L702.312 -302.897Z" stroke="#3858E4" stroke-width="0.389765"/>
<path d="M710.042 -306.164L776.177 -205.062L776.226 -204.987L776.315 -204.976L896.114 -189.37L795.012 -123.235L794.937 -123.186L794.926 -123.097L779.32 -3.29751L713.185 -104.399L713.136 -104.474L713.047 -104.486L593.248 -120.091L694.349 -186.227L694.424 -186.276L694.436 -186.365L710.042 -306.164Z" stroke="#3858E4" stroke-width="0.389765"/>
<path d="M717.025 -308.99L777.061 -208.72L777.107 -208.644L777.195 -208.629L892.392 -188.934L792.123 -128.899L792.046 -128.853L792.031 -128.765L772.337 -13.5679L712.301 -113.837L712.255 -113.914L712.167 -113.929L596.97 -133.623L697.239 -193.659L697.316 -193.705L697.331 -193.793L717.025 -308.99Z" stroke="#3858E4" stroke-width="0.389765"/>
</g>
</svg>
