<svg width="335" height="350" viewBox="0 0 335 350" fill="none" xmlns="http://www.w3.org/2000/svg">
<mask id="mask0_1267_1841" style="mask-type:alpha" maskUnits="userSpaceOnUse" x="0" y="0" width="335" height="350">
<rect width="335" height="350" fill="#EEEFF4"/>
</mask>
<g mask="url(#mask0_1267_1841)">
<rect x="9.34821" y="341.677" width="722.11" height="539.862" transform="rotate(-54.9739 9.34821 341.677)" stroke="#3858E4" stroke-width="0.5"/>
<rect x="17.9214" y="316.545" width="696.326" height="522.363" transform="rotate(-52.2335 17.9214 316.545)" stroke="#3858E4" stroke-width="0.5"/>
<rect x="27.5695" y="290.987" width="670.543" height="504.863" transform="rotate(-49.2725 27.5695 290.987)" stroke="#3858E4" stroke-width="0.5"/>
<rect x="38.5283" y="265.478" width="644.76" height="487.364" transform="rotate(-46.1295 38.5283 265.478)" stroke="#3858E4" stroke-width="0.5"/>
<rect x="50.9455" y="240.487" width="618.976" height="469.864" transform="rotate(-42.8441 50.9455 240.487)" stroke="#3858E4" stroke-width="0.5"/>
<rect x="64.8779" y="216.466" width="593.193" height="452.365" transform="rotate(-39.4557 64.8779 216.466)" stroke="#3858E4" stroke-width="0.5"/>
<rect x="80.2933" y="193.837" width="567.409" height="434.865" transform="rotate(-36.004 80.2933 193.837)" stroke="#3858E4" stroke-width="0.5"/>
<rect x="97.0779" y="172.973" width="541.626" height="417.366" transform="rotate(-32.5284 97.0779 172.973)" stroke="#3858E4" stroke-width="0.5"/>
<rect x="115.049" y="154.191" width="515.842" height="399.867" transform="rotate(-29.0674 115.049 154.191)" stroke="#3858E4" stroke-width="0.5"/>
<rect x="133.968" y="137.742" width="490.059" height="382.367" transform="rotate(-25.6589 133.968 137.742)" stroke="#3858E4" stroke-width="0.5"/>
<rect x="153.562" y="123.8" width="464.276" height="364.868" transform="rotate(-22.3393 153.562 123.8)" stroke="#3858E4" stroke-width="0.5"/>
<rect x="173.54" y="112.466" width="438.492" height="347.368" transform="rotate(-19.1437 173.54 112.466)" stroke="#3858E4" stroke-width="0.5"/>
<rect x="193.61" y="103.765" width="412.709" height="329.869" transform="rotate(-16.1054 193.61 103.765)" stroke="#3858E4" stroke-width="0.5"/>
<rect x="213.499" y="97.6567" width="386.925" height="312.369" transform="rotate(-13.2558 213.499 97.6567)" stroke="#3858E4" stroke-width="0.5"/>
<rect x="232.963" y="94.0382" width="361.142" height="294.87" transform="rotate(-10.6237 232.963 94.0382)" stroke="#3858E4" stroke-width="0.5"/>
<rect x="251.803" y="92.7582" width="335.358" height="277.37" transform="rotate(-8.23595 251.803 92.7582)" stroke="#3858E4" stroke-width="0.5"/>
<rect x="269.869" y="93.6266" width="309.575" height="259.871" transform="rotate(-6.11641 269.869 93.6266)" stroke="#3858E4" stroke-width="0.5"/>
<rect x="287.063" y="96.4252" width="283.792" height="242.372" transform="rotate(-4.28622 287.063 96.4252)" stroke="#3858E4" stroke-width="0.5"/>
<rect x="303.344" y="100.918" width="258.008" height="224.872" transform="rotate(-2.76356 303.344 100.918)" stroke="#3858E4" stroke-width="0.5"/>
<rect x="318.721" y="106.861" width="232.225" height="207.373" transform="rotate(-1.56345 318.721 106.861)" stroke="#3858E4" stroke-width="0.5"/>
<rect x="333.25" y="114.005" width="206.441" height="189.873" transform="rotate(-0.697716 333.25 114.005)" stroke="#3858E4" stroke-width="0.5"/>
</g>
</svg>
