<svg width="97" height="41" viewBox="0 0 97 41" fill="none" xmlns="http://www.w3.org/2000/svg">
<path d="M36.1 15.8V28.3C36.2 29.9 35.9 31.6 35.2 33C34.2 34.5 32.2 34.9 30.8 33.9C30.4 33.7 30.1 33.3 29.9 33C29.2 31.5 28.9 29.9 29 28.3V15.8H22.2V29.2C22.2 30.7 22.4 32.2 22.7 33.7C23 35 23.6 36.2 24.4 37.2C25.3 38.2 26.4 39 27.6 39.5C30.8 40.6 34.3 40.6 37.5 39.5C38.8 39 39.9 38.2 40.7 37.2C41.5 36.2 42.1 35 42.4 33.7C42.7 32.2 42.9 30.7 42.9 29.2V15.8H36.1Z" fill="#3858E4"/>
<path d="M97 27.8C97 29.6 96.7 31.3 96.2 33C95.7 34.5 94.9 35.9 93.8 37C92.8 38.1 91.5 39 90.1 39.6C88.6 40.2 86.9 40.5 85.2 40.5C83.6 40.5 81.9 40.2 80.4 39.6C79 39 77.7 38.1 76.7 37C75.6 35.8 74.8 34.5 74.3 33C73.7 31.3 73.4 29.6 73.4 27.8C73.4 26 73.7 24.3 74.3 22.6C74.8 21.1 75.7 19.8 76.8 18.6C77.9 17.5 79.1 16.6 80.5 16C83.5 14.8 86.9 14.8 90 16C91.4 16.6 92.7 17.5 93.7 18.6C94.8 19.7 95.6 21.1 96.1 22.6C96.7 24.3 97 26 97 27.8ZM90.1 27.8C90.2 26.1 89.8 24.3 88.8 22.8C88 21.6 86.7 21 85.2 21C83.8 20.9 82.4 21.6 81.6 22.8C80.7 24.3 80.2 26 80.3 27.8C80.2 29.6 80.7 31.3 81.6 32.8C82.4 34 83.8 34.7 85.2 34.6C86.6 34.7 88 34 88.8 32.8C89.7 31.3 90.2 29.5 90.1 27.8Z" fill="white"/>
<path d="M69.3 39.1C68.7 39.3 68 39.5 67.2 39.6C66.4 39.8 65.6 39.9 64.7 40C63.8 40.1 62.9 40.2 62.1 40.3C61.3 40.4 60.3 40.4 59.5 40.4C57.7 40.4 55.9 40.1 54.2 39.5C52.7 39 51.4 38.1 50.3 37C49.2 35.9 48.4 34.5 47.9 33.1C47.3 31.5 47 29.7 47 28C47 26.2 47.2 24.4 47.7 22.7C48.1 21.2 48.8 19.9 49.8 18.7C50.7 17.6 51.9 16.8 53.2 16.2C54.6 15.6 56.2 15.3 57.7 15.3C58.6 15.3 59.4 15.4 60.2 15.6C61 15.8 61.7 16.1 62.5 16.4V0H69.3V39.1ZM53.9 27.6C53.8 29.4 54.3 31.2 55.3 32.7C56.3 34 57.9 34.7 59.5 34.6C60.1 34.6 60.7 34.6 61.2 34.5C61.7 34.4 62.1 34.4 62.5 34.3V22C62 21.7 61.4 21.5 60.8 21.3C60.1 21.1 59.4 21 58.7 21C55.5 21.1 53.9 23.3 53.9 27.6Z" fill="white"/>
<path d="M8.3 34.9C9.2 35 10.1 34.8 10.9 34.5C11.4 34.2 11.7 33.7 11.7 33.1C11.7 32.5 11.3 31.9 10.7 31.7C9.7 31.1 8.7 30.7 7.6 30.3C6.6 29.9 5.6 29.5 4.7 29.1C3.9 28.7 3.1 28.2 2.5 27.6C1.9 27 1.4 26.3 1.1 25.5C0.7 24.6 0.6 23.5 0.6 22.5C0.5 20.4 1.5 18.4 3.1 17.2C5.1 15.8 7.5 15.1 10 15.2C11.4 15.2 12.8 15.3 14.2 15.6C15.3 15.8 16.4 16.1 17.4 16.4L16.2 21.7C15.4 21.4 14.5 21.2 13.6 21C12.6 20.8 11.5 20.7 10.5 20.7C8.4 20.7 7.3 21.3 7.3 22.5C7.3 22.7 7.3 23 7.4 23.2C7.5 23.5 7.7 23.7 7.9 23.8C8.3 24 8.6 24.3 9 24.4C9.5 24.6 10.1 24.9 10.8 25.2C12.1 25.7 13.3 26.2 14.5 26.8C15.4 27.2 16.1 27.8 16.8 28.5C17.3 29.1 17.8 29.8 18 30.6C18.2 31.5 18.4 32.3 18.3 33.2C18.4 35.3 17.4 37.4 15.6 38.6C13.8 39.8 11.3 40.4 8 40.4C5.4 40.5 2.6 40 0 39L1.1 33.5C2.3 34 3.4 34.3 4.7 34.6C5.9 34.8 7.1 34.9 8.3 34.9Z" fill="white"/>
</svg>
