<svg width="1920" height="834" viewBox="0 0 1920 834" fill="none" xmlns="http://www.w3.org/2000/svg">
<path fill-rule="evenodd" clip-rule="evenodd" d="M0 0H1920V834H1850.6C1861.86 817.195 1870.71 798.606 1877.17 779.22C1887.64 743.639 1893.92 708.059 1893.92 670.386C1893.92 632.713 1887.64 597.133 1875.08 561.552C1864.62 530.158 1847.87 500.857 1824.85 477.834C1803.92 454.812 1776.71 435.975 1747.41 423.417C1682.53 398.302 1611.37 398.302 1548.58 423.417C1519.28 435.975 1494.16 454.812 1471.14 477.834C1448.12 502.95 1429.28 530.158 1418.82 561.552C1406.26 597.133 1399.98 632.713 1399.98 670.386C1399.98 708.059 1406.26 743.639 1418.82 779.22C1425.4 798.962 1434.46 817.048 1446.01 834H1369.17V88H1226.85V431.244C1223.2 429.878 1219.66 428.511 1216.17 427.166C1203.62 422.331 1191.81 417.776 1178.71 414.501C1161.96 410.315 1145.22 408.222 1126.38 408.222C1094.99 408.222 1061.5 414.501 1032.2 427.059C1004.99 439.616 979.877 456.36 961.04 479.382C940.111 504.498 925.46 531.706 917.088 563.101C906.624 598.681 902.438 636.354 902.438 674.027C902.438 709.607 908.716 747.281 921.274 780.768C927.792 799.018 936.745 817.267 948.134 834H846.162C852.721 821.048 857.824 807.193 861.158 792.749C867.437 761.354 871.622 729.96 871.622 698.566V418.11H729.301V679.729C731.394 713.216 725.116 748.797 710.465 778.098C689.535 809.492 647.676 817.864 618.375 796.935C610.003 792.749 603.724 784.377 599.538 778.098C584.888 746.704 578.609 713.216 580.702 679.729V418.11H438.381V698.566C438.381 729.96 442.567 761.354 448.846 792.749C452.179 807.193 457.282 821.048 463.842 834H399.022C405.047 817.738 407.841 800.3 407.011 782.862C408.968 765.249 405.435 749.465 401.545 732.089C401.391 731.397 401.235 730.702 401.079 730.005C400.964 729.486 400.848 728.967 400.732 728.445C396.546 711.702 386.081 697.051 375.616 684.493C360.966 669.843 346.315 657.285 327.478 648.913C302.363 636.355 277.247 625.891 250.039 615.426C243.322 612.547 237.045 609.668 231.208 606.991L231.203 606.989L231.202 606.989L231.201 606.988L231.192 606.984L231.191 606.983C224.303 603.825 218.028 600.947 212.366 598.682C207.211 597.393 202.849 594.517 198.304 591.52C195.468 589.65 192.56 587.733 189.343 586.124C185.158 584.031 180.972 579.846 178.879 573.567C176.786 569.381 176.786 563.102 176.786 558.916C176.786 533.801 199.808 521.243 243.76 521.243C264.69 521.243 287.712 523.336 308.642 527.522C327.478 531.708 346.315 535.894 363.059 542.172L388.174 431.246C367.245 424.967 344.222 418.688 321.2 414.502C291.898 408.223 262.597 406.13 233.295 406.13C180.972 404.037 130.741 418.688 88.8816 447.989C55.3943 473.105 34.4648 514.964 36.5577 558.916C36.5577 579.846 38.6507 602.868 47.0225 621.705C53.3014 638.448 63.7661 653.099 76.3239 665.657C88.8816 678.214 105.625 688.679 122.369 697.051C141.205 705.423 162.135 713.794 183.064 722.166L183.065 722.166C206.087 730.538 227.017 738.91 247.946 751.468C260.504 755.654 268.876 768.211 268.876 780.769C268.876 793.327 262.597 803.792 252.132 810.071C235.388 816.349 216.552 820.535 197.715 818.442C172.6 818.442 147.484 816.349 122.369 812.163C95.1604 805.885 72.138 799.606 47.0225 789.141L38.0507 834H0V0ZM1046.85 665.655C1044.76 703.329 1055.22 741.002 1076.15 772.396C1097.08 799.604 1130.57 814.255 1164.06 812.162C1176.61 812.162 1189.17 812.162 1199.64 810.069C1204.54 809.088 1208.99 808.567 1213.19 808.074L1213.19 808.074C1217.95 807.516 1222.4 806.995 1226.85 805.883V548.45C1216.38 542.171 1203.82 537.985 1191.27 533.799C1176.61 529.613 1161.96 527.52 1147.31 527.52C1080.34 529.613 1046.85 575.658 1046.85 665.655ZM1722.3 565.738C1743.23 597.133 1751.6 634.806 1749.5 670.386C1751.6 705.966 1741.13 743.639 1722.3 775.034C1705.55 800.149 1676.25 814.8 1646.95 812.707C1617.65 814.8 1588.35 800.149 1571.6 775.034C1552.77 743.639 1542.3 708.059 1544.39 670.386C1542.3 632.713 1552.77 597.133 1571.6 565.738C1588.35 540.623 1617.65 525.972 1646.95 528.065C1678.34 528.065 1705.55 540.623 1722.3 565.738Z" fill="#061827"/>
</svg>
