<svg width="333" height="333" viewBox="0 0 333 333" fill="none" xmlns="http://www.w3.org/2000/svg">
<path d="M324.096 172.43L314.119 177.867L322.928 185.012L322.429 190.389L310.343 180.373L297.005 187.74L297.504 182.363L307.093 177.215L298.619 170.355L299.121 164.942L310.875 174.638L324.598 167.017L324.096 172.43Z" fill="white"/>
<path d="M293.507 200.831C293.937 199.356 294.565 198.102 295.391 197.068C296.241 196.041 297.224 195.24 298.341 194.665C299.452 194.114 300.636 193.784 301.892 193.675C303.149 193.567 304.399 193.694 305.644 194.056C306.911 194.426 308.045 194.994 309.047 195.76C310.048 196.527 310.869 197.442 311.51 198.503C312.143 199.588 312.531 200.788 312.672 202.104C312.837 203.427 312.704 204.826 312.274 206.301C311.845 207.775 311.208 209.015 310.366 210.019C309.539 211.053 308.568 211.857 307.45 212.432C306.333 213.006 305.149 213.336 303.899 213.422C302.643 213.53 301.381 213.4 300.114 213.031C298.869 212.668 297.747 212.103 296.745 211.337C295.737 210.593 294.916 209.679 294.282 208.594C293.642 207.532 293.239 206.34 293.075 205.017C292.933 203.701 293.077 202.306 293.507 200.831ZM304.254 198.826C303.194 198.517 302.188 198.449 301.238 198.622C300.311 198.802 299.513 199.182 298.844 199.761C298.175 200.341 297.709 201.081 297.447 201.979C297.192 202.855 297.191 203.717 297.444 204.566C297.719 205.421 298.2 206.173 298.885 206.823C299.587 207.503 300.468 207.997 301.528 208.306C302.565 208.608 303.562 208.661 304.519 208.465C305.469 208.292 306.279 207.916 306.948 207.336C307.617 206.756 308.079 206.028 308.334 205.152C308.596 204.254 308.589 203.377 308.314 202.521C308.061 201.673 307.58 200.92 306.872 200.264C306.186 199.614 305.313 199.135 304.254 198.826Z" fill="white"/>
<path d="M286.953 220.407L300.084 226.908L302.735 221.552L306.51 223.421L299.051 238.487L295.276 236.619L297.943 231.231L284.812 224.73L286.953 220.407Z" fill="white"/>
<path d="M279.569 235.22L294.754 246.351L291.902 250.241L281.914 242.92L286.93 257.086L284.333 260.628L269.119 249.476L271.971 245.585L281.727 252.736L276.909 238.849L279.569 235.22Z" fill="white"/>
<path d="M261.411 258.063L271.582 268.61L275.884 264.462L278.807 267.494L266.705 279.164L263.782 276.132L268.109 271.958L257.939 261.411L261.411 258.063Z" fill="white"/>
<path d="M241.988 274.116C243.239 273.267 244.513 272.708 245.809 272.438C247.118 272.187 248.379 272.187 249.593 272.437C250.82 272.707 251.955 273.184 252.999 273.868C254.037 274.585 254.919 275.48 255.647 276.553C256.657 278.042 257.252 279.625 257.432 281.301C257.592 282.991 257.305 284.621 256.572 286.191C255.833 287.794 254.619 289.169 252.931 290.314C251.223 291.472 249.507 292.085 247.783 292.152C246.073 292.239 244.483 291.882 243.012 291.082C241.535 290.315 240.318 289.226 239.361 287.816C239.2 287.578 239.041 287.323 238.886 287.051C238.744 286.799 238.629 286.587 238.541 286.415L250.608 278.23C249.989 277.49 249.289 276.95 248.508 276.61C247.706 276.283 246.9 276.163 246.089 276.25C245.271 276.369 244.514 276.665 243.819 277.136C243.025 277.675 242.408 278.369 241.969 279.218C241.523 280.1 241.387 280.947 241.559 281.757L237.487 283.128C237.325 282.077 237.393 281.002 237.69 279.901C237.968 278.814 238.462 277.768 239.173 276.764C239.898 275.78 240.836 274.897 241.988 274.116ZM252.415 280.702L244.251 286.239C244.87 286.98 245.563 287.51 246.331 287.83C247.092 288.184 247.879 288.317 248.69 288.231C249.515 288.164 250.295 287.882 251.03 287.383C251.745 286.898 252.286 286.285 252.653 285.543C253.013 284.835 253.18 284.054 253.154 283.203C253.12 282.384 252.874 281.551 252.415 280.702Z" fill="white"/>
<path d="M208.68 291.016C210.141 290.541 211.531 290.355 212.851 290.457C214.178 290.581 215.394 290.944 216.497 291.544C217.608 292.168 218.573 292.965 219.393 293.935C220.189 294.913 220.788 296.018 221.188 297.251C221.736 298.94 221.859 300.603 221.558 302.24C221.241 303.908 220.512 305.393 219.371 306.697C218.23 308.001 216.689 308.968 214.749 309.598C212.808 310.228 211.005 310.346 209.338 309.953C207.672 309.561 206.274 308.791 205.144 307.643L209.185 304.818C209.788 305.354 210.465 305.689 211.215 305.824C211.973 305.982 212.74 305.935 213.516 305.683C214.383 305.402 215.108 304.914 215.691 304.22C216.258 303.557 216.613 302.748 216.757 301.793C216.909 300.86 216.811 299.858 216.462 298.785C216.122 297.735 215.612 296.865 214.935 296.177C214.242 295.519 213.464 295.065 212.6 294.815C211.745 294.588 210.883 294.615 210.015 294.897C209.468 295.075 208.984 295.333 208.563 295.671C208.121 296.017 207.757 296.412 207.473 296.858C207.188 297.303 207.021 297.761 206.972 298.231L202.042 298.317C202.164 297.294 202.509 296.298 203.079 295.331C203.625 294.372 204.368 293.513 205.308 292.753C206.232 292.025 207.356 291.445 208.68 291.016Z" fill="white"/>
<path d="M189.988 296.28L192.069 310.784L197.985 309.935L198.583 314.104L181.941 316.492L181.343 312.323L187.294 311.469L185.213 296.965L189.988 296.28Z" fill="white"/>
<path d="M174.169 304.179C174.131 305.402 173.763 306.459 173.063 307.35C172.338 308.264 171.356 308.954 170.117 309.42C168.878 309.886 167.467 310.094 165.884 310.046C165.093 310.021 164.291 309.936 163.479 309.791C162.667 309.646 161.965 309.432 161.374 309.15L161.343 310.157C161.305 311.357 161.637 312.292 162.336 312.961C163.012 313.631 164.046 313.987 165.437 314.03C166.468 314.062 167.458 313.912 168.404 313.581C169.351 313.25 170.351 312.753 171.404 312.089L172.853 315.303C171.581 316.08 170.29 316.653 168.982 317.021C167.65 317.388 166.265 317.549 164.825 317.504C162.139 317.421 160.072 316.685 158.627 315.296C157.157 313.906 156.46 311.964 156.537 309.469L156.723 303.46C156.739 302.956 156.666 302.593 156.505 302.372C156.319 302.151 156.024 302.009 155.617 301.949L155.738 298.027C156.172 297.968 156.57 297.92 156.931 297.883C157.269 297.846 157.557 297.831 157.797 297.838C158.757 297.868 159.482 298.106 159.972 298.554C160.439 299 160.722 299.537 160.823 300.165L160.901 301.139C161.749 300.109 162.794 299.325 164.035 298.787C165.276 298.249 166.532 298 167.804 298.039C169.051 298.078 170.171 298.364 171.163 298.899C172.13 299.457 172.888 300.189 173.436 301.094C173.96 302.023 174.204 303.051 174.169 304.179ZM162.469 302.845C162.196 303.124 161.971 303.406 161.794 303.688C161.618 303.971 161.526 304.232 161.518 304.472L161.459 306.379C162.028 306.637 162.646 306.836 163.314 306.977C163.981 307.141 164.614 307.233 165.214 307.252C166.461 307.29 167.502 307.046 168.334 306.52C169.142 306.016 169.56 305.321 169.587 304.433C169.602 303.953 169.484 303.494 169.234 303.054C168.983 302.614 168.61 302.254 168.114 301.975C167.619 301.695 167.023 301.545 166.327 301.523C165.608 301.501 164.896 301.611 164.192 301.853C163.488 302.12 162.913 302.45 162.469 302.845Z" fill="white"/>
<path d="M144.884 296.64L141.974 311L147.831 312.187L146.994 316.315L130.517 312.976L131.354 308.848L137.246 310.042L140.156 295.682L144.884 296.64Z" fill="white"/>
<path d="M128.616 293.174L121.923 310.81L117.413 309.099L119.52 303.545L115.515 302.025C113.406 301.225 111.995 300.073 111.281 298.57C110.568 297.067 110.548 295.43 111.221 293.657C111.672 292.468 112.312 291.491 113.141 290.728C113.97 289.964 114.947 289.488 116.071 289.298C117.187 289.131 118.429 289.308 119.798 289.827L128.616 293.174ZM122.803 294.895L119.202 293.528C118.596 293.298 118.055 293.235 117.58 293.337C117.083 293.43 116.668 293.645 116.335 293.981C115.98 294.308 115.704 294.73 115.508 295.246C115.321 295.739 115.244 296.211 115.279 296.66C115.305 297.132 115.478 297.557 115.797 297.935C116.084 298.327 116.554 298.646 117.204 298.893L120.772 300.247L122.803 294.895Z" fill="white"/>
<path d="M88.5031 272.857L84.5218 278.33C85.2876 278.501 86.0137 278.747 86.7 279.068C87.367 279.375 88.0789 279.804 88.8359 280.355C90.4467 281.527 91.3977 282.871 91.6887 284.389C91.9656 285.926 91.4969 287.529 90.2828 289.198L86.3439 294.613L82.4428 291.775L86.0005 286.884C86.6641 285.972 86.9571 285.161 86.8795 284.452C86.7825 283.728 86.3167 283.063 85.4822 282.456C85.0164 282.117 84.5153 281.827 83.9789 281.585C83.4425 281.343 82.9458 281.19 82.4888 281.125L77.4063 288.112L73.4762 285.253L84.5729 269.998L88.5031 272.857Z" fill="white"/>
<path d="M75.5732 270.285C74.6921 271.135 73.6901 271.634 72.5672 271.784C71.4103 271.932 70.2256 271.741 69.0132 271.21C67.8008 270.679 66.6448 269.843 65.5452 268.703C64.9955 268.133 64.4806 267.512 64.0005 266.842C63.5205 266.171 63.1673 265.528 62.9408 264.913L62.2152 265.612C61.3514 266.445 60.9362 267.346 60.9695 268.314C60.9862 269.265 61.4776 270.241 62.4439 271.243C63.1602 271.986 63.9729 272.57 64.8817 272.993C65.7906 273.417 66.8537 273.759 68.071 274.019L66.8651 277.332C65.4115 277 64.088 276.509 62.8947 275.86C61.6847 275.193 60.5799 274.341 59.5804 273.304C57.7145 271.37 56.7489 269.4 56.6834 267.396C56.6013 265.375 57.4587 263.498 59.2554 261.765L63.583 257.592C63.9458 257.242 64.1466 256.932 64.1855 256.661C64.2077 256.373 64.0945 256.065 63.8458 255.738L66.6705 253.014C67.0222 253.275 67.3402 253.519 67.6247 253.745C67.8925 253.953 68.1097 254.144 68.2762 254.316C68.9426 255.008 69.2953 255.684 69.3341 256.347C69.3564 256.992 69.1845 257.575 68.8187 258.094L68.1939 258.847C69.5205 258.701 70.8159 258.869 72.0802 259.35C73.3444 259.832 74.418 260.53 75.301 261.446C76.1673 262.344 76.7689 263.331 77.1058 264.406C77.4088 265.481 77.4405 266.534 77.2012 267.565C76.9278 268.595 76.3852 269.502 75.5732 270.285ZM68.1264 261.162C67.7358 261.172 67.3786 261.217 67.0547 261.296C66.7307 261.375 66.4824 261.498 66.3096 261.664L64.9362 262.989C65.1633 263.57 65.4668 264.144 65.8469 264.711C66.2097 265.295 66.5994 265.802 67.0159 266.234C67.8822 267.133 68.7972 267.684 69.761 267.888C70.6908 268.092 71.4753 267.885 72.1145 267.269C72.46 266.936 72.6967 266.524 72.8244 266.034C72.9521 265.544 72.936 265.026 72.7762 264.48C72.6164 263.934 72.295 263.411 71.8118 262.91C71.312 262.392 70.7256 261.974 70.0524 261.656C69.362 261.355 68.72 261.19 68.1264 261.162Z" fill="white"/>
<path d="M57.82 240.737C58.6728 242.014 59.2295 243.302 59.4899 244.6C59.7304 245.911 59.7113 247.179 59.4325 248.404C59.1338 249.642 58.6287 250.787 57.9171 251.839C57.1922 252.872 56.2909 253.748 55.213 254.467C53.7359 255.453 52.1687 256.023 50.5114 256.178C48.8208 256.325 47.1931 256.027 45.6283 255.282C44.0636 254.538 42.7149 253.317 41.5822 251.62C40.4495 249.924 39.8459 248.22 39.7716 246.51C39.6972 244.799 40.059 243.244 40.8568 241.846L44.673 244.969C44.3207 245.694 44.1814 246.437 44.2551 247.196C44.3089 247.968 44.5623 248.693 45.0154 249.372C45.5218 250.13 46.1878 250.696 47.0134 251.068C47.8058 251.433 48.6812 251.556 49.6396 251.435C50.5781 251.328 51.5164 250.962 52.4545 250.335C53.3727 249.722 54.0712 248.996 54.5499 248.157C54.9953 247.312 55.2211 246.44 55.2271 245.541C55.2132 244.656 54.9531 243.834 54.4467 243.075C54.1269 242.596 53.7472 242.2 53.3077 241.888C52.8548 241.555 52.3754 241.313 51.8694 241.16C51.3634 241.007 50.8775 240.971 50.4116 241.051L48.9907 236.329C50.009 236.169 51.0608 236.231 52.1459 236.517C53.2178 236.782 54.2465 237.264 55.2321 237.963C56.1845 238.654 57.0471 239.579 57.82 240.737Z" fill="white"/>
<path d="M47.6902 224.25L34.3044 230.209L36.7347 235.668L32.8867 237.381L26.0499 222.022L29.8978 220.309L32.3427 225.802L45.7285 219.843L47.6902 224.25Z" fill="white"/>
<path d="M41.0606 208.903L22.7983 213.629L21.5896 208.959L27.3402 207.471L26.2668 203.323C25.7016 201.139 25.8262 199.322 26.6408 197.872C27.4554 196.421 28.7805 195.459 30.616 194.984C31.8474 194.665 33.0142 194.623 34.1163 194.859C35.2185 195.094 36.1716 195.616 36.9758 196.424C37.7567 197.238 38.3306 198.354 38.6974 199.771L41.0606 208.903ZM36.2971 205.153L35.3319 201.423C35.1696 200.796 34.9095 200.318 34.5517 199.989C34.1879 199.637 33.7728 199.422 33.3065 199.345C32.8341 199.244 32.3308 199.262 31.7964 199.401C31.2852 199.533 30.8562 199.743 30.5093 200.031C30.1392 200.325 29.8921 200.712 29.768 201.19C29.6146 201.651 29.6251 202.219 29.7995 202.892L30.7556 206.587L36.2971 205.153Z" fill="white"/>
<path d="M34.8603 171.342C34.9458 173.044 34.6968 174.547 34.1134 175.849C33.506 177.153 32.6475 178.242 31.5379 179.115C30.4031 179.965 29.1112 180.558 27.6623 180.895L27.8103 183.844L35.1091 183.477L35.351 188.295L16.5107 189.241L16.2689 184.423L23.6036 184.055L23.4556 181.106C21.9562 180.917 20.6114 180.456 19.4211 179.723C18.2057 178.967 17.2419 177.958 16.5297 176.696C15.8176 175.434 15.42 173.976 15.3369 172.322C15.2346 170.285 15.5914 168.537 16.4073 167.078C17.2232 165.619 18.3555 164.481 19.8044 163.664C21.228 162.823 22.8387 162.358 24.6364 162.268C26.4342 162.177 28.0954 162.478 29.62 163.171C31.1207 163.864 32.3499 164.896 33.3078 166.266C34.2417 167.637 34.7592 169.329 34.8603 171.342ZM30.7615 171.548C30.7158 170.637 30.4357 169.846 29.9215 169.175C29.4072 168.504 28.7209 167.998 27.8627 167.657C27.0045 167.315 26.0121 167.173 24.8855 167.229C23.711 167.288 22.7145 167.543 21.896 167.992C21.0524 168.419 20.4203 168.991 19.9998 169.709C19.5792 170.427 19.3912 171.23 19.4358 172.117C19.4791 172.98 19.7579 173.747 20.2722 174.418C20.7613 175.066 21.447 175.56 22.3291 175.9C23.1873 176.242 24.1917 176.384 25.3423 176.326C26.4928 176.268 27.4899 176.026 28.3336 175.599C29.1533 175.173 29.774 174.613 30.1957 173.919C30.6162 173.201 30.8048 172.411 30.7615 171.548Z" fill="white"/>
<path d="M36.0255 142.655L17.8182 137.721L19.08 133.064L26.0293 134.948L28.0256 127.581L21.0762 125.698L22.338 121.042L40.5453 125.976L39.2835 130.632L31.9172 128.636L29.921 136.002L37.2873 137.999L36.0255 142.655Z" fill="white"/>
<path d="M37.0535 117.762C35.9506 117.232 35.1339 116.466 34.6036 115.465C34.062 114.432 33.8296 113.254 33.9062 111.933C33.9829 110.611 34.3647 109.237 35.0516 107.81C35.3951 107.096 35.7978 106.398 36.2598 105.714C36.7218 105.031 37.2019 104.476 37.6999 104.05L36.7917 103.613C35.7104 103.093 34.7217 103.016 33.8255 103.384C32.9398 103.73 32.1951 104.53 31.5914 105.785C31.1439 106.715 30.8794 107.679 30.7978 108.679C30.7163 109.678 30.7654 110.794 30.945 112.026L27.419 112.047C27.225 110.568 27.2251 109.157 27.4195 107.812C27.6243 106.446 28.039 105.114 28.6635 103.816C29.8292 101.394 31.3402 99.8041 33.1965 99.0462C35.0633 98.2666 37.1212 98.418 39.3703 99.5005L44.7875 102.108C45.2416 102.326 45.6025 102.407 45.8699 102.349C46.1478 102.27 46.3969 102.057 46.6171 101.71L50.1529 103.411C50.0304 103.832 49.9128 104.215 49.7999 104.56C49.6974 104.884 49.5942 105.153 49.4901 105.37C49.0738 106.235 48.5617 106.801 47.9538 107.067C47.3564 107.313 46.7506 107.354 46.1362 107.192L45.2136 106.867C45.8112 108.061 46.1042 109.333 46.0924 110.686C46.0806 112.039 45.7989 113.288 45.2473 114.435C44.706 115.559 43.9898 116.466 43.0985 117.156C42.196 117.814 41.2198 118.209 40.1699 118.343C39.1087 118.445 38.0699 118.252 37.0535 117.762ZM43.0189 107.609C42.8738 107.246 42.708 106.927 42.5213 106.65C42.3347 106.374 42.1332 106.184 41.917 106.08L40.1977 105.252C39.7317 105.667 39.2989 106.151 38.8993 106.705C38.4781 107.248 38.1375 107.79 37.8773 108.331C37.336 109.455 37.1372 110.505 37.2807 111.479C37.413 112.422 37.8792 113.086 38.6794 113.471C39.1119 113.679 39.58 113.758 40.0838 113.707C40.5875 113.657 41.0676 113.462 41.5241 113.122C41.9806 112.782 42.3597 112.299 42.6615 111.672C42.9738 111.023 43.1619 110.328 43.2258 109.586C43.2681 108.834 43.1991 108.175 43.0189 107.609Z" fill="white"/>
<path d="M52.7339 97.3326L37.8938 85.6868L40.872 81.8918L52.3985 90.9373L56.11 86.2078L44.5835 77.1623L47.5838 73.339L59.1103 82.3845L62.7997 77.6832L51.2731 68.6378L54.2513 64.8428L69.0913 76.4886L52.7339 97.3326Z" fill="white"/>
<path d="M80.4051 66.5947C79.2399 67.5582 78.025 68.2356 76.7605 68.6272C75.4807 69.0002 74.225 69.1198 72.9933 68.986C71.7463 68.8336 70.5707 68.4665 69.4668 67.8845C68.366 67.2687 67.4026 66.4615 66.5768 65.4626C65.4298 64.0754 64.6875 62.5561 64.3497 60.9046C64.0304 59.2378 64.1612 57.5882 64.7422 55.9557C65.3263 54.2893 66.4045 52.8062 67.9767 51.5063C69.5674 50.1911 71.2175 49.4185 72.9269 49.1885C74.621 48.94 76.2381 49.1444 77.7782 49.8018C79.3215 50.4255 80.636 51.3939 81.7218 52.7072C81.9053 52.9291 82.0872 53.168 82.2675 53.4237C82.4326 53.661 82.567 53.8612 82.6708 54.0245L71.4342 63.315C72.1199 63.9937 72.8678 64.4652 73.6781 64.7296C74.5068 64.9786 75.321 65.0217 76.1205 64.8588C76.9233 64.6622 77.6484 64.2963 78.2958 63.761C79.0357 63.1493 79.584 62.4001 79.9408 61.5134C80.3008 60.5929 80.3564 59.7373 80.1074 58.9466L84.0322 57.1964C84.2925 58.2268 84.3267 59.304 84.1349 60.428C83.9616 61.5366 83.5687 62.6244 82.9561 63.6914C82.3283 64.7399 81.4779 65.7077 80.4051 66.5947ZM69.4011 61.0255L77.0032 54.7401C76.3175 54.0614 75.5771 53.5991 74.7822 53.3533C73.9905 53.0737 73.1948 53.0153 72.3952 53.1781C71.5804 53.3225 70.8307 53.6776 70.1464 54.2434C69.4805 54.794 69.0001 55.4559 68.7052 56.2291C68.4135 56.9685 68.3213 57.761 68.4286 58.6065C68.5392 59.4181 68.8633 60.2245 69.4011 61.0255Z" fill="white"/>
<path d="M92.611 56.2238L83.5168 39.7378L87.7407 37.4077L93.7224 48.2513L95.131 33.2899L98.9767 31.1685L108.088 47.686L103.864 50.0161L98.0218 39.4247L96.5512 54.0502L92.611 56.2238ZM90.4018 33.8841C88.7836 34.7767 87.2862 35.0682 85.9094 34.7587C84.5211 34.4282 83.4676 33.6115 82.7488 32.3086L85.3652 30.8653C85.7129 31.4958 86.2129 31.9052 86.865 32.0937C87.5172 32.2821 88.2846 32.1329 89.1672 31.646C90.0498 31.1591 90.5701 30.6117 90.7281 30.0038C90.9071 29.3842 90.8532 28.7151 90.5663 27.9962L93.1826 26.553C93.9014 27.8559 94.0303 29.1827 93.5693 30.5333C93.0968 31.8629 92.0409 32.9799 90.4018 33.8841Z" fill="white"/>
<path d="M126.161 40.0345L121.992 21.6369L126.697 20.5709L128.272 27.5227L129.852 27.1647L133.263 19.0832L138.389 17.9218L133.871 28.2843L143.259 36.1603L137.888 37.3775L130.721 31.3236L129.211 31.6657L130.866 38.9685L126.161 40.0345Z" fill="white"/>
<path d="M158.37 34.8623C156.835 34.9215 155.447 34.723 154.204 34.2666C152.961 33.7862 151.89 33.107 150.991 32.229C150.116 31.3501 149.429 30.3319 148.928 29.1744C148.427 28.0168 148.151 26.7906 148.101 25.4955C148.05 24.1765 148.23 22.9206 148.64 21.7279C149.05 20.5352 149.658 19.467 150.462 18.5232C151.29 17.5786 152.306 16.8308 153.51 16.28C154.712 15.7051 156.081 15.3881 157.616 15.3288C159.151 15.2696 160.528 15.4806 161.747 15.9619C162.99 16.4183 164.06 17.0855 164.959 17.9635C165.858 18.8415 166.545 19.8597 167.022 21.0181C167.523 22.1757 167.799 23.4139 167.85 24.733C167.9 26.028 167.72 27.2719 167.31 28.4646C166.924 29.6564 166.316 30.7246 165.488 31.6693C164.684 32.613 163.681 33.3723 162.478 33.9471C161.274 34.498 159.905 34.803 158.37 34.8623ZM153.065 25.3038C153.108 26.407 153.362 27.3819 153.827 28.2286C154.291 29.0513 154.904 29.6882 155.666 30.1391C156.428 30.59 157.276 30.7974 158.212 30.7613C159.123 30.7261 159.941 30.4544 160.666 29.946C161.39 29.4137 161.952 28.7195 162.351 27.8635C162.773 26.9825 162.963 25.9905 162.921 24.8873C162.879 23.8081 162.614 22.8456 162.125 21.9998C161.66 21.1531 161.046 20.5043 160.284 20.0534C159.522 19.6025 158.686 19.3946 157.774 19.4298C156.839 19.4659 156.009 19.7501 155.285 20.2824C154.56 20.7908 153.999 21.485 153.6 22.365C153.201 23.221 153.023 24.2007 153.065 25.3038Z" fill="white"/>
<path d="M175.14 33.8972L178.248 15.291L183.219 16.1214L187.246 27.853L194.902 18.0728L199.802 18.8913L196.694 37.4975L192.184 36.7442L194.195 24.707L187.978 32.6472L184.995 32.1489L181.661 22.6132L179.65 34.6504L175.14 33.8972Z" fill="white"/>
<path d="M202.898 38.9083L209.591 21.2717L225.41 27.2752L218.717 44.9118L214.207 43.2002L219.405 29.5015L212.606 26.9213L207.408 40.6199L202.898 38.9083Z" fill="white"/>
<path d="M227.169 42.2143C227.803 41.1674 228.643 40.428 229.691 39.9961C230.771 39.5561 231.965 39.4376 233.273 39.6407C234.581 39.8437 235.913 40.3556 237.267 41.1763C237.945 41.5866 238.601 42.0545 239.237 42.5799C239.873 43.1053 240.379 43.6363 240.756 44.173L241.278 43.3108C241.899 42.2844 242.07 41.3076 241.79 40.3803C241.531 39.4655 240.806 38.6474 239.615 37.9263C238.732 37.3916 237.797 37.0357 236.81 36.8587C235.823 36.6817 234.708 36.6235 233.465 36.6841L233.782 33.1725C235.272 33.1211 236.677 33.2567 237.997 33.5791C239.337 33.914 240.623 34.4545 241.855 35.2006C244.154 36.5932 245.592 38.2498 246.168 40.1703C246.765 42.1032 246.417 44.1371 245.124 46.272L242.009 51.4142C241.748 51.8452 241.634 52.1967 241.665 52.4685C241.718 52.7527 241.906 53.021 242.23 53.2735L240.197 56.6298C239.79 56.4675 239.42 56.3137 239.088 56.1682C238.775 56.0352 238.517 55.9065 238.311 55.7822C237.49 55.2848 236.976 54.7208 236.769 54.0902C236.582 53.472 236.599 52.865 236.82 52.2691L237.231 51.3817C235.986 51.8622 234.691 52.0317 233.345 51.8902C232 51.7487 230.783 51.3485 229.695 50.6895C228.628 50.0429 227.794 49.2429 227.192 48.2896C226.624 47.3282 226.324 46.3185 226.291 45.2606C226.292 44.1945 226.584 43.1791 227.169 42.2143ZM236.703 49.126C237.078 49.0165 237.412 48.882 237.705 48.7227C237.998 48.5634 238.207 48.3812 238.331 48.1759L239.319 46.5439C238.951 46.0402 238.511 45.563 237.998 45.1122C237.498 44.6408 236.991 44.2498 236.478 43.9389C235.41 43.2923 234.385 42.9937 233.401 43.0431C232.45 43.0844 231.744 43.4848 231.284 44.2443C231.036 44.6549 230.912 45.1133 230.914 45.6195C230.916 46.1258 231.064 46.6224 231.359 47.1093C231.653 47.5963 232.098 48.02 232.693 48.3806C233.309 48.7537 233.983 49.0076 234.715 49.1424C235.46 49.2566 236.122 49.2512 236.703 49.126Z" fill="white"/>
<path d="M245.624 60.0766L258.166 45.9851L261.769 49.1922L256.982 54.5706L262.684 59.6445L267.47 54.2661L271.074 57.4732L258.533 71.5647L254.929 68.3576L260.003 62.6564L254.302 57.5825L249.228 63.2837L245.624 60.0766Z" fill="white"/>
<path d="M263.943 76.6127L278.84 65.0975L281.79 68.914L271.992 76.4881L286.993 75.5853L289.679 79.0601L274.754 90.5973L271.804 86.7808L281.374 79.3828L266.696 80.173L263.943 76.6127Z" fill="white"/>
<path d="M278.99 96.3942L295.77 87.8537L297.958 92.1528L286.921 97.7703L301.828 99.676L303.82 103.59L287.008 112.147L284.82 107.848L295.6 102.361L281.032 100.405L278.99 96.3942Z" fill="white"/>
<path d="M298.487 118.021C299.221 117.795 299.93 117.651 300.615 117.591C301.329 117.547 302.025 117.647 302.703 117.89C303.381 118.133 304.054 118.566 304.723 119.189C305.028 119.447 305.396 119.785 305.827 120.205C306.264 120.648 306.729 121.057 307.222 121.433C307.737 121.802 308.285 122.072 308.866 122.245C309.476 122.434 310.102 122.429 310.745 122.232C311.387 122.034 311.877 121.707 312.213 121.252C312.557 120.82 312.766 120.316 312.84 119.74C312.921 119.188 312.874 118.625 312.697 118.052C312.492 117.387 312.16 116.836 311.699 116.401C311.261 115.958 310.779 115.616 310.254 115.377C309.728 115.137 309.208 114.958 308.695 114.84L309.837 111.211C310.905 111.334 311.881 111.649 312.765 112.155C313.656 112.684 314.418 113.366 315.052 114.2C315.693 115.058 316.172 116.003 316.49 117.035C316.758 117.906 316.885 118.809 316.871 119.742C316.88 120.669 316.716 121.561 316.377 122.418C316.038 123.276 315.508 124.042 314.787 124.716C314.065 125.39 313.108 125.911 311.915 126.278C311.181 126.504 310.5 126.614 309.87 126.607C309.247 126.623 308.656 126.541 308.099 126.361C307.571 126.197 307.053 125.942 306.545 125.597C306.037 125.251 305.529 124.867 305.023 124.445C304.472 123.962 303.93 123.464 303.395 122.95C302.867 122.46 302.299 122.083 301.69 121.818C301.111 121.569 300.432 121.565 299.652 121.805L298.487 118.021ZM290.491 120.558L295.239 119.096L296.415 122.915L291.667 124.377L290.491 120.558Z" fill="white"/>
</svg>
